<svg xmlns="http://www.w3.org/2000/svg" width="64" height="64"><path d="M32 1C14.898 1 1 14.898 1 32c0 5.25 1.3 10.398 3.852 14.95l-2.653 9.698c-.449 1.551 0 3.153 1.153 4.301 1.148 1.153 2.75 1.602 4.3 1.2L17.75 59.5c4.398 2.3 9.3 3.5 14.3 3.5 17.098 0 31-13.898 31-31 0-8.3-3.198-16.05-9.05-21.902C48.102 4.25 40.3 1 32 1zm0 3c7.5 0 14.55 2.898 19.8 8.2 5.302 5.3 8.25 12.35 8.2 19.8 0 15.45-12.55 28-28 28-4.648 0-9.3-1.2-13.402-3.402-.2-.098-.45-.196-.696-.196-.152 0-.254-.004-.402.047L6.852 59.25c-.75.2-1.25-.2-1.45-.398-.203-.204-.601-.7-.402-1.45l2.8-10.304c.098-.399.052-.797-.152-1.149C5.25 41.75 4 36.9 4 32 4 16.55 16.55 4 32 4zm0 4.5C19.05 8.5 8.5 19 8.5 32c0 4.148 1.102 8.2 3.148 11.75.801 1.398 1 3.05.602 4.602l-1.45 5.25 5.598-1.45c.5-.152 1-.203 1.5-.203 1 0 2 .25 2.852.75C24.2 54.5 28.05 55.5 32 55.5c12.95 0 23.5-10.55 23.5-23.5 0-6.3-2.45-12.2-6.902-16.648C44.199 10.949 38.3 8.5 32 8.5zm-10.45 9.852h1.4c.55 0 1.1.046 1.648 1.25.652 1.449 2.101 5.097 2.254 5.449.199.347.3.8.05 1.3s-.351.797-.75 1.25c-.351.45-.8.95-1.101 1.301-.352.348-.75.75-.301 1.5.45.75 1.898 3.149 4.102 5.098 2.796 2.5 5.199 3.3 5.949 3.652.75.348 1.148.297 1.601-.203.45-.5 1.848-2.148 2.348-2.898.5-.75 1-.602 1.652-.352.7.25 4.297 2.051 5.047 2.403.75.347 1.25.546 1.403.847.199.403.199 1.852-.403 3.602-.597 1.699-3.597 3.398-5 3.5-1.347.097-2.597.597-8.847-1.852-7.5-2.949-12.25-10.648-12.602-11.148-.352-.5-3-4-3-7.649 0-3.652 1.898-5.402 2.602-6.152.699-.75 1.449-.898 1.949-.898zm0 0" fill="#fff"/></svg>